<svg width="41" height="40" viewBox="0 0 41 40" fill="none" xmlns="http://www.w3.org/2000/svg">
<g clip-path="url(#clip0_17_581)">
<path fill-rule="evenodd" clip-rule="evenodd" d="M24.5 10H28.5C28.7652 10 29.0196 10.1054 29.2072 10.2929C29.3947 10.4804 29.5 10.7348 29.5 11C29.5 11.2652 29.3947 11.5196 29.2072 11.7071C29.0196 11.8946 28.7652 12 28.5 12H24.5C24.2348 12 23.9804 11.8946 23.7929 11.7071C23.6053 11.5196 23.5 11.2652 23.5 11C23.5 10.7348 23.6053 10.4804 23.7929 10.2929C23.9804 10.1054 24.2348 10 24.5 10ZM24.5 14H28.5C28.7652 14 29.0196 14.1054 29.2072 14.2929C29.3947 14.4804 29.5 14.7348 29.5 15C29.5 15.2652 29.3947 15.5196 29.2072 15.7071C29.0196 15.8946 28.7652 16 28.5 16H24.5C24.2348 16 23.9804 15.8946 23.7929 15.7071C23.6053 15.5196 23.5 15.2652 23.5 15C23.5 14.7348 23.6053 14.4804 23.7929 14.2929C23.9804 14.1054 24.2348 14 24.5 14ZM24.5 22H28.5C28.7652 22 29.0196 22.1054 29.2072 22.2929C29.3947 22.4804 29.5 22.7348 29.5 23C29.5 23.2652 29.3947 23.5196 29.2072 23.7071C29.0196 23.8946 28.7652 24 28.5 24H24.5C24.2348 24 23.9804 23.8946 23.7929 23.7071C23.6053 23.5196 23.5 23.2652 23.5 23C23.5 22.7348 23.6053 22.4804 23.7929 22.2929C23.9804 22.1054 24.2348 22 24.5 22ZM24.5 18H28.5C28.7652 18 29.0196 18.1054 29.2072 18.2929C29.3947 18.4804 29.5 18.7348 29.5 19C29.5 19.2652 29.3947 19.5196 29.2072 19.7071C29.0196 19.8946 28.7652 20 28.5 20H24.5C24.2348 20 23.9804 19.8946 23.7929 19.7071C23.6053 19.5196 23.5 19.2652 23.5 19C23.5 18.7348 23.6053 18.4804 23.7929 18.2929C23.9804 18.1054 24.2348 18 24.5 18ZM39.5 11H35.5V36.5C35.5 37.4283 35.1313 38.3185 34.4749 38.9749C33.8185 39.6313 32.9283 40 32 40C31.8324 39.9956 31.6652 39.9789 31.5 39.95V40H4.50003V39.95C4.33481 39.9789 4.1677 39.9956 4.00003 40C3.07177 40 2.18155 39.6313 1.52517 38.9749C0.868796 38.3185 0.500027 37.4283 0.500027 36.5V32C0.500027 31.7348 0.605337 31.4804 0.792874 31.2929C0.98041 31.1054 1.23481 31 1.50003 31C1.76524 31 2.01964 31.1054 2.20718 31.2929C2.39472 31.4804 2.50003 31.7348 2.50003 32V36.5C2.50003 36.8978 2.65805 37.2794 2.93936 37.5607C3.22066 37.842 3.6022 38 4.00003 38C4.17124 37.996 4.34045 37.9622 4.50003 37.9V38H28.85C28.6213 37.5329 28.5017 37.02 28.5 36.5V33H19.5C19.2348 33 18.9804 32.8946 18.7929 32.7071C18.6053 32.5196 18.5 32.2652 18.5 32C18.5 31.7348 18.6053 31.4804 18.7929 31.2929C18.9804 31.1054 19.2348 31 19.5 31H30.5V36.5C30.5 36.8978 30.6581 37.2794 30.9394 37.5607C31.2207 37.842 31.6022 38 32 38C32.3979 38 32.7794 37.842 33.0607 37.5607C33.342 37.2794 33.5 36.8978 33.5 36.5V3.5C33.5017 2.97996 33.6213 2.46707 33.85 2H10.5V2.1C10.3404 2.03783 10.1712 2.00399 10 2C9.6022 2 9.22066 2.15803 8.93936 2.43934C8.65805 2.72064 8.50003 3.10218 8.50003 3.5V4C8.50003 4.26522 8.39472 4.51957 8.20718 4.70711C8.01964 4.89464 7.76524 5 7.50003 5C7.23481 5 6.98041 4.89464 6.79287 4.70711C6.60534 4.51957 6.50003 4.26522 6.50003 4V3.5C6.50003 2.57174 6.8688 1.6815 7.52517 1.02513C8.18155 0.36875 9.07177 0 10 0C10.1677 0.00436549 10.3348 0.0210766 10.5 0.0499992V0H36.5V0.0499992C36.6652 0.0210766 36.8324 0.00436549 37 0C37.9283 0 38.8185 0.36875 39.4749 1.02513C40.1313 1.6815 40.5 2.57174 40.5 3.5V11H39.5ZM38.5 3.5C38.5 3.10218 38.342 2.72064 38.0607 2.43934C37.7794 2.15803 37.3979 2 37 2C36.6022 2 36.2207 2.15803 35.9394 2.43934C35.6581 2.72064 35.5 3.10218 35.5 3.5V8V9H38.5V3.5ZM20.5 17C20.499 18.5506 20.137 20.0796 19.4428 21.4661C18.7485 22.8525 17.741 24.0583 16.5 24.988V32C16.5022 32.1375 16.475 32.2739 16.4201 32.4C16.3155 32.643 16.119 32.8346 15.8734 32.933C15.6279 33.0314 15.3534 33.0285 15.11 32.925L10.51 31.073L5.89004 32.925C5.64665 33.0285 5.37213 33.0314 5.12661 32.933C4.8811 32.8346 4.68452 32.643 4.57998 32.4C4.52509 32.2739 4.49786 32.1375 4.50003 32V24.988C3.13597 23.965 2.05616 22.6101 1.36319 21.0522C0.670208 19.4943 0.387041 17.7851 0.540676 16.087C0.694312 14.3888 1.27966 12.7582 2.24099 11.3499C3.20233 9.94171 4.50771 8.80267 6.03323 8.04105C7.55875 7.27944 9.25377 6.92053 10.9571 6.99845C12.6604 7.07637 14.3154 7.58851 15.765 8.48623C17.2147 9.38394 18.4107 10.6374 19.2394 12.1275C20.0682 13.6177 20.5021 15.2949 20.5 17ZM6.50003 30.54L10.11 29.094C10.2366 29.041 10.3729 29.0151 10.51 29.018C10.6505 29.0142 10.7903 29.0401 10.9201 29.094L14.5 30.536V26.162C13.2388 26.7145 11.8769 26.9997 10.5 26.9997C9.12315 26.9997 7.76121 26.7145 6.50003 26.162V30.54ZM2.50003 17C2.50003 18.5823 2.96924 20.129 3.84829 21.4446C4.72734 22.7602 5.9767 23.7855 7.4385 24.391C8.90031 24.9965 10.5088 25.155 12.0607 24.8463C13.6125 24.5376 15.0381 23.7757 16.1569 22.6569C17.2757 21.538 18.0377 20.1126 18.3463 18.5607C18.655 17.0089 18.4965 15.4003 17.891 13.9385C17.2855 12.4767 16.2602 11.2273 14.9446 10.3482C13.629 9.46919 12.0823 9 10.5 9C8.37829 9 6.34346 9.84286 4.84317 11.3431C3.34288 12.8434 2.50003 14.8783 2.50003 17ZM16.5 17C16.5 18.1867 16.1481 19.3467 15.4888 20.3334C14.8295 21.3201 13.8925 22.0891 12.7962 22.5433C11.6998 22.9974 10.4934 23.1162 9.32949 22.8847C8.16561 22.6532 7.09647 22.0818 6.25735 21.2426C5.41824 20.4035 4.84677 19.3344 4.61526 18.1705C4.38375 17.0067 4.50257 15.8003 4.95669 14.7039C5.41082 13.6075 6.17996 12.6705 7.16665 12.0112C8.15335 11.3519 9.31334 11 10.5 11C12.0913 11 13.6175 11.6321 14.7427 12.7574C15.8679 13.8826 16.5 15.4087 16.5 17ZM6.50003 17C6.50003 17.7911 6.73457 18.5645 7.1741 19.2223C7.61363 19.8801 8.23836 20.3928 8.96926 20.6955C9.70017 20.9983 10.5045 21.0775 11.2804 20.9231C12.0563 20.7688 12.769 20.3878 13.3284 19.8284C13.8878 19.269 14.2688 18.5563 14.4231 17.7804C14.5775 17.0044 14.4983 16.2002 14.1956 15.4693C13.8928 14.7384 13.3801 14.1136 12.7223 13.6741C12.0645 13.2346 11.2912 13 10.5 13C9.43916 13 8.4218 13.4214 7.67166 14.1716C6.92151 14.9217 6.50003 15.9391 6.50003 17Z" fill="#A2DCAA"/>
<path opacity="0.1" fill-rule="evenodd" clip-rule="evenodd" d="M31.5 39H29.5V32H26.5V5C26.5 4.20435 26.8161 3.44129 27.3787 2.87868C27.9413 2.31607 28.7044 2 29.5 2H34.5V36C34.5 36.7957 34.1839 37.5587 33.6213 38.1213C33.0587 38.6839 32.2956 39 31.5 39ZM12 22C11.3078 22 10.6311 21.7947 10.0555 21.4101C9.47997 21.0256 9.03139 20.4789 8.76648 19.8394C8.50157 19.1999 8.43221 18.4961 8.56726 17.8172C8.70231 17.1383 9.03566 16.5146 9.52515 16.0251C10.0146 15.5356 10.6382 15.2023 11.3171 15.0673C11.9961 14.9322 12.6998 15.0015 13.3394 15.2664C13.9789 15.5313 14.5256 15.9799 14.9102 16.5555C15.2947 17.1311 15.5 17.8078 15.5 18.5C15.5 19.4283 15.1312 20.3185 14.4749 20.9749C13.8185 21.6313 12.9283 22 12 22ZM26.5 37L27.5 38L2.5 39L1.5 38V35H26.5V37Z" fill="#A2DCAA"/>
</g>
<defs>
<clipPath id="clip0_17_581">
<rect width="40" height="40" fill="white" transform="translate(0.5)"/>
</clipPath>
</defs>
</svg>
