<svg width="24" height="24" viewBox="0 0 24 24" fill="none" xmlns="http://www.w3.org/2000/svg">
<g clip-path="url(#clip0_14_95)">
<path d="M17.033 21.2494C15.8631 22.9739 13.9511 24.0408 11.6678 23.9989C6.84023 23.8899 3.94424 18.5725 6.3876 14.4074L11.0788 6.41141C11.3053 6.02451 11.7572 5.89945 12.1294 6.03568C12.3081 6.10068 12.4683 6.22575 12.5773 6.41141L17.2685 14.4074C18.6082 16.691 18.3426 19.3213 17.033 21.2494Z" fill="#F44545"/>
<path d="M23.2653 7.25004C22.7294 8.48215 21.5407 9.33231 20.0337 9.29514C17.4526 9.21458 15.9208 6.36546 17.2274 4.13798L19.4035 0.428627C19.6301 0.0422746 20.082 -0.0833358 20.4541 0.053444C20.633 0.117897 20.7936 0.242958 20.9022 0.428627L23.0782 4.13798C23.6737 5.15293 23.6795 6.29752 23.2653 7.25004Z" fill="#F44545"/>
<path d="M5.83118 10.9125C5.41041 12.0438 4.35517 12.8815 3.01172 12.8815C0.650762 12.8815 -0.749263 10.3081 0.420965 8.31335L2.34797 5.02844C2.56495 4.65875 3.01282 4.55859 3.35468 4.72814C3.48212 4.79058 3.59455 4.89129 3.67511 5.02844L5.60212 8.31335C6.09742 9.15746 6.13202 10.1021 5.83118 10.9125Z" fill="#F44545"/>
<path d="M17.033 21.2493C16.1347 21.8036 15.0714 22.1401 13.8933 22.1671C8.90676 22.3044 5.78389 16.8521 8.29244 12.5756L12.1294 6.03564C12.3081 6.10065 12.4683 6.22571 12.5773 6.41138L17.2684 14.4074C18.6082 16.6909 18.3425 19.3212 17.033 21.2493Z" fill="#FB5858"/>
<path d="M23.2653 7.25006C22.9302 7.37659 22.5653 7.45129 22.1764 7.46338C22.1374 7.46448 22.0973 7.46539 22.0577 7.46539C22.0176 7.46539 21.9781 7.46448 21.9385 7.46338C19.3577 7.38281 17.8253 4.53369 19.1324 2.30676L20.4541 0.0534668C20.633 0.11792 20.7936 0.242981 20.9022 0.42865L23.0782 4.138C23.6736 5.15295 23.6795 6.29755 23.2653 7.25006Z" fill="#FB5858"/>
<path d="M5.83113 10.9125C5.57808 10.9922 5.30708 11.0394 5.02181 11.0482C4.98702 11.0493 4.95186 11.0499 4.91634 11.0499C4.88118 11.0499 4.84584 11.0493 4.81123 11.0482C2.52571 10.977 1.16872 8.45416 2.32594 6.48175L3.35463 4.72815C3.48207 4.79059 3.5945 4.8913 3.67506 5.02844L5.60207 8.31335C6.09737 9.15747 6.13197 10.1021 5.83113 10.9125Z" fill="#FB5858"/>
</g>
<defs>
<clipPath id="clip0_14_95">
<rect width="24" height="24" fill="white"/>
</clipPath>
</defs>
</svg>
