<svg width="16" height="24" viewBox="0 0 16 24" fill="none" xmlns="http://www.w3.org/2000/svg">
<path d="M14.5833 20.336C13.1037 22.6331 10.6854 24.0543 7.7974 23.9984C1.69143 23.8533 -1.97145 16.7704 1.11893 11.2224L7.05236 0.57143C7.33884 0.0560664 7.91042 -0.110518 8.38125 0.0709444C8.60728 0.157529 8.80993 0.324114 8.94772 0.57143L14.8812 11.2224C16.5757 14.2641 16.2397 17.7677 14.5833 20.336Z" fill="#F44545"/>
<path d="M14.5833 20.336C13.4471 21.0743 12.1022 21.5226 10.6122 21.5585C4.30519 21.7414 0.355361 14.4787 3.52819 8.78241L8.38123 0.0709839C8.60727 0.157569 8.80991 0.324154 8.94771 0.57147L14.8811 11.2224C16.5757 14.2641 16.2397 17.7677 14.5833 20.336Z" fill="#FB5858"/>
</svg>
