<svg width="19" height="24" viewBox="0 0 19 24" fill="none" xmlns="http://www.w3.org/2000/svg">
<path d="M18.2273 8.73435C18.2273 16.367 9.49998 24 9.49998 24C9.49998 24 0.772705 16.367 0.772705 8.73435C0.772705 6.41974 1.69218 4.19992 3.32886 2.56324C4.96554 0.926558 7.18536 0.00708008 9.49998 0.00708008C11.8146 0.00708008 14.0344 0.926558 15.6711 2.56324C17.3078 4.19992 18.2273 6.41974 18.2273 8.73435Z" fill="#FA4B4B"/>
<path d="M4.35712 18.1623C5.85588 20.288 7.5802 22.2453 9.49997 24C9.49997 24 16.8143 17.6 18.0473 10.6598C14.6628 14.4167 9.71026 17.1429 4.35712 18.1623Z" fill="#DC3C46"/>
<path d="M9.49999 15.6883C13.4018 15.6883 16.5649 12.5253 16.5649 8.62341C16.5649 4.72155 13.4018 1.55847 9.49999 1.55847C5.59814 1.55847 2.43506 4.72155 2.43506 8.62341C2.43506 12.5253 5.59814 15.6883 9.49999 15.6883Z" fill="#EEEEEE"/>
<path d="M8.2532 7.37668V4.052H10.7467V7.37668H14.0714V9.87018H10.7467V13.1949H8.2532V9.87018H4.92853V7.37668H8.2532Z" fill="#AD2A37"/>
</svg>
