<svg width="121" height="120" viewBox="0 0 121 120" fill="none" xmlns="http://www.w3.org/2000/svg">
<path d="M60.5 120C93.5823 120 120.5 93.0847 120.5 60C120.5 54.2896 119.703 48.6621 118.125 43.2727C117.347 40.6226 114.58 39.1003 111.922 39.8779C109.27 40.6531 107.752 43.4302 108.527 46.0803C109.835 50.5579 110.5 55.2429 110.5 60C110.5 87.5696 88.0696 110 60.5 110C32.9304 110 10.5 87.5696 10.5 60C10.5 32.4304 32.9304 10 60.5 10C70.5195 10 80.1594 12.9297 88.3772 18.4705C90.6648 20.0146 93.7751 19.408 95.3169 17.1204C96.8599 14.8303 96.2581 11.7224 93.968 10.1794C84.0925 3.52051 72.5203 0 60.5 0C27.4177 0 0.5 26.9153 0.5 60C0.5 93.0847 27.4177 120 60.5 120Z" fill="#6AB974"/>
<path d="M111.964 11.4648L60.4991 62.9272L44.0342 46.4648C42.0811 44.5129 38.9171 44.5129 36.9639 46.4648C35.012 48.418 35.012 51.582 36.9639 53.5352L56.9639 73.5352C57.9417 74.5129 59.2186 75 60.4991 75C61.7796 75 63.0565 74.5129 64.0342 73.5352L119.034 18.5352C120.986 16.582 120.986 13.418 119.034 11.4648C117.081 9.51294 113.917 9.51294 111.964 11.4648Z" fill="#6AB974"/>
</svg>
