<svg width="36" height="36" viewBox="0 0 36 36" fill="none" xmlns="http://www.w3.org/2000/svg">
<path fill-rule="evenodd" clip-rule="evenodd" d="M0 17.9212C0 27.6904 8.04379 35.6123 17.97 35.6123C27.8944 35.6123 35.9401 27.6904 35.9401 17.9212C35.9401 8.1519 27.8944 0.231903 17.97 0.231903C8.04379 0.231903 0 8.1519 0 17.9212ZM12.0124 32.85C5.95498 30.5138 1.66265 24.7121 1.66265 17.9214C1.66265 9.06536 8.95384 1.88999 17.9485 1.88999C26.9431 1.88999 34.2343 9.06536 34.2343 17.9214C34.2343 26.7755 26.9431 33.9527 17.9485 33.9527C16.2681 33.9527 14.6494 33.7026 13.1268 33.2365C13.789 32.1717 14.7822 30.4266 15.1498 29.034C15.3481 28.2837 16.1642 25.2237 16.1642 25.2237C16.6954 26.2203 18.2468 27.0654 19.8983 27.0654C24.8085 27.0654 28.3482 22.6184 28.3482 17.0934C28.3482 11.7976 23.9578 7.83378 18.3084 7.83378C11.2809 7.83378 7.54873 12.4797 7.54873 17.5367C7.54873 19.8862 8.8191 22.8155 10.8517 23.7477C11.1616 23.8879 11.3271 23.8254 11.3984 23.5317C11.4202 23.4419 11.4783 23.21 11.5479 22.9321C11.6502 22.5235 11.7774 22.0157 11.8507 21.7146C11.8892 21.5517 11.8699 21.4134 11.7371 21.2542C11.0634 20.4508 10.5264 18.9729 10.5264 17.5955C10.5264 14.0599 13.2462 10.638 17.8792 10.638C21.8809 10.638 24.6815 13.3209 24.6815 17.1597C24.6815 21.4967 22.4564 24.5018 19.5615 24.5018C17.9639 24.5018 16.7667 23.202 17.1497 21.6047C17.3159 20.9161 17.5381 20.2079 17.7542 19.5193C18.1362 18.302 18.499 17.1459 18.499 16.2673C18.499 15.0357 17.8272 14.0087 16.4394 14.0087C14.8033 14.0087 13.4925 15.6723 13.4925 17.9024C13.4925 19.3216 13.9795 20.2822 13.9795 20.2822C13.9795 20.2822 12.3646 26.999 12.0701 28.2496C11.7429 29.6365 11.8699 31.5824 12.0124 32.85Z" fill="black"/>
</svg>
