<svg width="24" height="24" viewBox="0 0 24 24" fill="none" xmlns="http://www.w3.org/2000/svg">
<g clip-path="url(#clip0_14_167)">
<path d="M22.3524 1.6477C24.5493 3.84413 24.5493 7.40564 22.3524 9.60258L17.7174 14.238C17.0934 14.862 16.3597 15.3083 15.578 15.5778C14.3891 15.9877 13.0904 15.9877 11.9015 15.5778C11.1198 15.3083 10.3861 14.862 9.76207 14.238C9.13859 13.614 8.69182 12.8803 8.42229 12.0986L8.52091 12C8.42229 12.0986 10.2594 10.2258 10.2594 10.2258L12.0002 12C12.9591 12.9595 14.5199 12.9595 15.4794 12L15.578 11.9014L20.1149 7.36453C21.0739 6.40556 21.0739 4.84477 20.1149 3.88528C19.1554 2.92631 17.5946 2.92631 16.6356 3.88528L12.0988 8.42212L10.2605 9.16969L8.42224 8.42208C8.69177 7.64091 9.13802 6.90666 9.76202 6.28266L14.3975 1.6477C16.5944 -0.549234 20.1559 -0.549234 22.3524 1.6477Z" fill="#FFA3A3"/>
<path d="M12.0988 8.42209C12.8799 8.69162 13.6137 9.13839 14.2377 9.76239C14.8617 10.3859 15.3084 11.1201 15.578 11.9013L15.4793 11.9999C14.5198 12.9594 12.9591 12.9594 12.0001 11.9999C11.0406 11.0409 9.4798 11.0409 8.52083 11.9999L8.42221 12.0985L3.88536 16.6354C2.92588 17.5949 2.92588 19.1557 3.88536 20.1146C4.84433 21.0741 6.40513 21.0741 7.36461 20.1146L11.9015 15.5778C13.0904 15.9876 14.389 15.9876 15.578 15.5778C15.3084 16.3595 14.8617 17.0932 14.2377 17.7172L9.60271 22.3527C7.40577 24.5491 3.84425 24.5491 1.64732 22.3527C-0.549105 20.1557 -0.549105 16.5942 1.64732 14.3973L6.28278 9.76234C6.90679 9.13834 7.64052 8.69157 8.42221 8.42204C9.61119 8.01231 10.9098 8.01231 12.0988 8.42209Z" fill="#F34040"/>
</g>
<defs>
<clipPath id="clip0_14_167">
<rect width="24" height="24" fill="white"/>
</clipPath>
</defs>
</svg>
