<svg width="19" height="24" viewBox="0 0 19 24" fill="none" xmlns="http://www.w3.org/2000/svg">
<path d="M18.2273 8.73435C18.2273 16.367 9.50001 24 9.50001 24C9.50001 24 0.772736 16.367 0.772736 8.73435C0.772736 6.41974 1.69221 4.19992 3.32889 2.56324C4.96558 0.926558 7.18539 0.00708008 9.50001 0.00708008C11.8146 0.00708008 14.0344 0.926558 15.6711 2.56324C17.3078 4.19992 18.2273 6.41974 18.2273 8.73435Z" fill="#FA4B4B"/>
<path d="M4.35715 18.1623C5.85591 20.288 7.58023 22.2453 9.5 24C9.5 24 16.8143 17.6 18.0473 10.6598C14.6628 14.4167 9.71029 17.1429 4.35715 18.1623Z" fill="#DC3C46"/>
<path d="M9.49999 15.6883C13.4018 15.6883 16.5649 12.5253 16.5649 8.62341C16.5649 4.72155 13.4018 1.55847 9.49999 1.55847C5.59814 1.55847 2.43506 4.72155 2.43506 8.62341C2.43506 12.5253 5.59814 15.6883 9.49999 15.6883Z" fill="#EEEEEE"/>
<path d="M13.2403 6.54544V6.12986C13.2403 5.7992 13.1089 5.48208 12.8751 5.24827C12.6413 5.01446 12.3242 4.88311 11.9935 4.88311H11.1624V3.63635H7.83768V4.88311H7.00651C6.67585 4.88311 6.35873 5.01446 6.12492 5.24827C5.89111 5.48208 5.75976 5.7992 5.75976 6.12986V6.54544H4.92859V7.37661H5.75976V11.1169C5.75976 11.2271 5.80354 11.3328 5.88148 11.4107C5.95942 11.4887 6.06512 11.5325 6.17534 11.5325H6.59093V12.7792H8.25326V11.5325H10.7468V12.7792H12.4091V11.5325H12.8247C12.9349 11.5325 13.0406 11.4887 13.1186 11.4107C13.1965 11.3328 13.2403 11.2271 13.2403 11.1169V7.37661H14.0714V6.54544H13.2403ZM7.2143 10.7013C7.09101 10.7013 6.97049 10.6647 6.86797 10.5962C6.76546 10.5277 6.68556 10.4304 6.63838 10.3165C6.5912 10.2026 6.57885 10.0772 6.6029 9.9563C6.62696 9.83537 6.68633 9.7243 6.77351 9.63712C6.86069 9.54994 6.97177 9.49056 7.09269 9.46651C7.21361 9.44246 7.33895 9.4548 7.45286 9.50199C7.56677 9.54917 7.66412 9.62907 7.73262 9.73158C7.80112 9.8341 7.83768 9.95462 7.83768 10.0779C7.83768 10.2432 7.772 10.4018 7.6551 10.5187C7.53819 10.6356 7.37963 10.7013 7.2143 10.7013ZM11.7857 10.7013C11.6624 10.7013 11.5419 10.6647 11.4394 10.5962C11.3369 10.5277 11.257 10.4304 11.2098 10.3165C11.1626 10.2026 11.1503 10.0772 11.1743 9.9563C11.1984 9.83537 11.2578 9.7243 11.3449 9.63712C11.4321 9.54994 11.5432 9.49056 11.6641 9.46651C11.785 9.44246 11.9104 9.4548 12.0243 9.50199C12.1382 9.54917 12.2356 9.62907 12.3041 9.73158C12.3725 9.8341 12.4091 9.95462 12.4091 10.0779C12.4091 10.2432 12.3434 10.4018 12.2265 10.5187C12.1096 10.6356 11.9511 10.7013 11.7857 10.7013ZM12.4091 8.62337H6.59093V6.12986C6.59093 6.01964 6.63471 5.91393 6.71265 5.836C6.79059 5.75806 6.89629 5.71427 7.00651 5.71427H11.9935C12.1037 5.71427 12.2095 5.75806 12.2874 5.836C12.3653 5.91393 12.4091 6.01964 12.4091 6.12986V8.62337Z" fill="#AD2A37"/>
</svg>
