<svg width="41" height="40" viewBox="0 0 41 40" fill="none" xmlns="http://www.w3.org/2000/svg">
<g clip-path="url(#clip0_17_392)">
<path fill-rule="evenodd" clip-rule="evenodd" d="M37.5 36H36.4C36.1705 37.1303 35.5573 38.1465 34.6642 38.8764C33.7712 39.6063 32.6534 40.0051 31.5 40.0051C30.3466 40.0051 29.2288 39.6063 28.3358 38.8764C27.4427 38.1465 26.8295 37.1303 26.6 36H14.4C14.1705 37.1303 13.5573 38.1465 12.6642 38.8764C11.7712 39.6063 10.6534 40.0051 9.5 40.0051C8.34664 40.0051 7.22877 39.6063 6.33575 38.8764C5.44274 38.1465 4.82949 37.1303 4.59998 36H3.5C2.70435 36 1.94127 35.684 1.37866 35.1214C0.816053 34.5588 0.5 33.7957 0.5 33V20C0.5 19.2044 0.816053 18.4413 1.37866 17.8787C1.94127 17.3161 2.70435 17 3.5 17H30.474C32.131 17 33.358 18.325 34.518 19.609L40.5 25.989V33C40.5 33.7957 40.1839 34.5588 39.6213 35.1214C39.0587 35.684 38.2957 36 37.5 36ZM31.5 38C32.0933 38 32.6733 37.8241 33.1667 37.4944C33.66 37.1648 34.0446 36.6963 34.2717 36.1481C34.4987 35.5999 34.5581 34.9967 34.4424 34.4148C34.3266 33.8328 34.0409 33.2983 33.6213 32.8787C33.2018 32.4592 32.6672 32.1734 32.0853 32.0577C31.5033 31.9419 30.9001 32.0013 30.3519 32.2284C29.8038 32.4555 29.3353 32.84 29.0056 33.3333C28.676 33.8267 28.5 34.4067 28.5 35C28.5 35.7957 28.8161 36.5588 29.3787 37.1214C29.9413 37.684 30.7044 38 31.5 38ZM9.5 38C10.0933 38 10.6733 37.8241 11.1667 37.4944C11.66 37.1648 12.0446 36.6963 12.2717 36.1481C12.4987 35.5999 12.5581 34.9967 12.4424 34.4148C12.3266 33.8328 12.0409 33.2983 11.6213 32.8787C11.2018 32.4592 10.6672 32.1734 10.0853 32.0577C9.50332 31.9419 8.90011 32.0013 8.35193 32.2284C7.80375 32.4555 7.33526 32.84 7.00562 33.3333C6.67597 33.8267 6.5 34.4067 6.5 35C6.5 35.7957 6.81605 36.5588 7.37866 37.1214C7.94127 37.684 8.70435 38 9.5 38ZM38.5 27H29.5C28.9696 27 28.4609 26.7893 28.0858 26.4143C27.7107 26.0392 27.5 25.5305 27.5 25V22C27.5 21.7348 27.6054 21.4805 27.7929 21.2929C27.9804 21.1054 28.2348 21 28.5 21C28.7652 21 29.0196 21.1054 29.2071 21.2929C29.3946 21.4805 29.5 21.7348 29.5 22V25H37.01L32.364 20.1C31.8365 19.4951 31.1059 19.1039 30.31 19H3.5C3.23478 19 2.98044 19.1054 2.79291 19.2929C2.60537 19.4805 2.5 19.7348 2.5 20V33C2.5 33.2653 2.60537 33.5196 2.79291 33.7071C2.98044 33.8947 3.23478 34 3.5 34H4.59998C4.82949 32.8698 5.44274 31.8536 6.33575 31.1237C7.22877 30.3938 8.34664 29.995 9.5 29.995C10.6534 29.995 11.7712 30.3938 12.6642 31.1237C13.5573 31.8536 14.1705 32.8698 14.4 34H26.6C26.8295 32.8698 27.4427 31.8536 28.3358 31.1237C29.2288 30.3938 30.3466 29.995 31.5 29.995C32.6534 29.995 33.7712 30.3938 34.6642 31.1237C35.5573 31.8536 36.1705 32.8698 36.4 34H37.5C37.7652 34 38.0196 33.8947 38.2071 33.7071C38.3946 33.5196 38.5 33.2653 38.5 33V27ZM21.5 28H16.5C16.2348 28 15.9804 27.8947 15.7929 27.7071C15.6054 27.5196 15.5 27.2653 15.5 27C15.5 26.7348 15.6054 26.4805 15.7929 26.2929C15.9804 26.1054 16.2348 26 16.5 26H21.5C21.7652 26 22.0196 26.1054 22.2071 26.2929C22.3946 26.4805 22.5 26.7348 22.5 27C22.5 27.2653 22.3946 27.5196 22.2071 27.7071C22.0196 27.8947 21.7652 28 21.5 28ZM21.5 25H9.5C9.23478 25 8.98044 24.8947 8.79291 24.7071C8.60537 24.5196 8.5 24.2653 8.5 24C8.5 23.7348 8.60537 23.4805 8.79291 23.2929C8.98044 23.1054 9.23478 23 9.5 23H21.5C21.7652 23 22.0196 23.1054 22.2071 23.2929C22.3946 23.4805 22.5 23.7348 22.5 24C22.5 24.2653 22.3946 24.5196 22.2071 24.7071C22.0196 24.8947 21.7652 25 21.5 25ZM10.576 9.59304C10.6851 9.35154 10.8857 9.16322 11.1335 9.06947C11.3814 8.97572 11.6564 8.9842 11.898 9.09304L15.348 10.639C15.6897 10.329 16.1119 10.1216 16.5661 10.0406C17.0203 9.95957 17.4882 10.0083 17.916 10.181L20.788 7.26804C20.9785 7.09774 21.227 7.00683 21.4824 7.01398C21.7379 7.02113 21.9809 7.12579 22.1616 7.30648C22.3423 7.48717 22.4469 7.73018 22.454 7.98561C22.4612 8.24105 22.3703 8.48953 22.2 8.68004L19.325 11.6C19.4392 11.8864 19.4985 12.1917 19.5 12.5C19.5 13.1631 19.2366 13.799 18.7678 14.2678C18.2989 14.7367 17.663 15 17 15C16.337 15 15.7011 14.7367 15.2322 14.2678C14.7634 13.799 14.5 13.1631 14.5 12.5C14.5 12.483 14.5 12.467 14.5 12.45L11.074 10.915C10.8328 10.8055 10.645 10.6049 10.5516 10.357C10.4583 10.1092 10.467 9.83443 10.576 9.59304ZM17 13C17.0989 13 17.1955 12.9707 17.2778 12.9158C17.36 12.8608 17.4241 12.7828 17.4619 12.6914C17.4998 12.6 17.5097 12.4995 17.4904 12.4025C17.4711 12.3055 17.4235 12.2164 17.3536 12.1465C17.2837 12.0766 17.1945 12.0289 17.0975 12.0096C17.0005 11.9904 16.9 12.0003 16.8087 12.0381C16.7173 12.0759 16.6392 12.14 16.5843 12.2223C16.5293 12.3045 16.5 12.4012 16.5 12.5C16.5 12.6327 16.5527 12.7598 16.6464 12.8536C16.7402 12.9474 16.8674 13 17 13ZM27.188 15C27.5739 13.4523 27.6022 11.837 27.2706 10.2767C26.939 8.7164 26.2563 7.25217 25.2742 5.99517C24.2922 4.73816 23.0367 3.72143 21.603 3.02215C20.1693 2.32288 18.5951 1.95944 17 1.95944C15.4049 1.95944 13.8307 2.32288 12.397 3.02215C10.9633 3.72143 9.70781 4.73816 8.72577 5.99517C7.74373 7.25217 7.06097 8.7164 6.72937 10.2767C6.39777 11.837 6.42605 13.4523 6.81201 15H4.75098C4.38233 13.1846 4.42183 11.3099 4.86658 9.51158C5.31133 7.71326 6.15021 6.03627 7.32257 4.60192C8.49493 3.16758 9.97147 2.01175 11.6453 1.21804C13.3192 0.424322 15.1485 0.0125732 17.001 0.0125732C18.8535 0.0125732 20.6828 0.424322 22.3567 1.21804C24.0305 2.01175 25.5071 3.16758 26.6794 4.60192C27.8518 6.03627 28.6907 7.71326 29.1354 9.51158C29.5802 11.3099 29.6196 13.1846 29.251 15H27.19H27.188Z" fill="#A2DCAA"/>
<path opacity="0.1" fill-rule="evenodd" clip-rule="evenodd" d="M31.5 39C30.7089 39 29.9355 38.7654 29.2777 38.3258C28.6199 37.8863 28.1073 37.2616 27.8045 36.5307C27.5018 35.7998 27.4225 34.9955 27.5769 34.2196C27.7312 33.4437 28.1122 32.7309 28.6716 32.1715C29.231 31.6121 29.9437 31.2312 30.7197 31.0768C31.4956 30.9225 32.2999 31.0017 33.0308 31.3044C33.7617 31.6072 34.3863 32.1199 34.8259 32.7777C35.2654 33.4355 35.5 34.2088 35.5 35C35.5 36.0608 35.0786 37.0782 34.3284 37.8284C33.5783 38.5785 32.5609 39 31.5 39ZM9.63001 15C9.40248 13.6388 9.47425 12.2443 9.84034 10.9137C10.2064 9.58303 10.8581 8.34812 11.7499 7.29488C12.6417 6.24163 13.7523 5.39534 15.0043 4.81487C16.2564 4.23441 17.6199 3.93372 19 3.93372C20.3801 3.93372 21.7436 4.23441 22.9957 4.81487C24.2478 5.39534 25.3583 6.24163 26.2501 7.29488C27.1419 8.34812 27.7936 9.58303 28.1597 10.9137C28.5258 12.2443 28.5975 13.6388 28.37 15H9.63001ZM13.5 35C13.5 35.7911 13.2654 36.5644 12.8259 37.2222C12.3863 37.88 11.7617 38.3927 11.0308 38.6955C10.2999 38.9982 9.4956 39.0774 8.71967 38.9231C7.94375 38.7688 7.23099 38.3878 6.67158 37.8284C6.11217 37.269 5.73119 36.5562 5.57685 35.7803C5.42251 35.0044 5.50176 34.2001 5.80451 33.4692C6.10726 32.7383 6.61992 32.1136 7.27772 31.6741C7.93551 31.2345 8.70888 31 9.50001 31C10.5609 31 11.5783 31.4214 12.3284 32.1715C13.0786 32.9217 13.5 33.9391 13.5 35Z" fill="#A2DCAA"/>
</g>
<defs>
<clipPath id="clip0_17_392">
<rect width="40" height="40" fill="white" transform="translate(0.5)"/>
</clipPath>
</defs>
</svg>
