<svg width="40" height="40" viewBox="0 0 40 40" fill="none" xmlns="http://www.w3.org/2000/svg">
<path d="M32.6931 16.0334H12.6513C12.3054 16.0334 12.025 16.3138 12.025 16.6598C12.025 17.0058 12.3053 17.2861 12.6513 17.2861H32.6931C33.039 17.2861 33.3194 17.0058 33.3194 16.6598C33.3194 16.3138 33.0391 16.0334 32.6931 16.0334Z" fill="#A2DCAA"/>
<path d="M24.6764 22.714H12.6513C12.3054 22.714 12.025 22.9943 12.025 23.3403C12.025 23.6863 12.3053 23.9666 12.6513 23.9666H24.6764C25.0223 23.9666 25.3027 23.6863 25.3027 23.3403C25.3027 22.9943 25.0223 22.714 24.6764 22.714Z" fill="#A2DCAA"/>
<path d="M39.3737 19.3737H12.6513C12.3054 19.3737 12.025 19.654 12.025 20C12.025 20.3459 12.3053 20.6263 12.6513 20.6263H39.3737C39.7196 20.6263 40 20.346 40 20C40 19.654 39.7197 19.3737 39.3737 19.3737Z" fill="#A2DCAA"/>
<path d="M32.6931 2.67224H12.6513C12.3054 2.67224 12.025 2.95255 12.025 3.29857C12.025 3.64451 12.3053 3.9249 12.6513 3.9249H32.693C33.039 3.9249 33.3194 3.64458 33.3194 3.29857C33.3194 2.95255 33.039 2.67224 32.6931 2.67224Z" fill="#A2DCAA"/>
<path d="M24.6764 9.35278H12.6513C12.3054 9.35278 12.025 9.6331 12.025 9.97911C12.025 10.3251 12.3053 10.6054 12.6513 10.6054H24.6764C25.0223 10.6054 25.3027 10.3251 25.3027 9.97911C25.3027 9.6331 25.0223 9.35278 24.6764 9.35278Z" fill="#A2DCAA"/>
<path d="M39.3737 6.01245H12.6513C12.3054 6.01245 12.025 6.29276 12.025 6.63878C12.025 6.98472 12.3053 7.26511 12.6513 7.26511H39.3737C39.7196 7.26511 40 6.9848 40 6.63878C40 6.29284 39.7197 6.01245 39.3737 6.01245Z" fill="#A2DCAA"/>
<path d="M7.97492 28.7264H1.29437C0.580625 28.7264 0 29.3071 0 30.0208V36.7014C0 37.4151 0.580625 37.9958 1.29437 37.9958H7.97492C8.68867 37.9958 9.2693 37.4151 9.2693 36.7014V30.0208C9.2693 29.3071 8.68867 28.7264 7.97492 28.7264ZM8.01672 36.7015C8.01672 36.7244 7.99797 36.7432 7.975 36.7432H1.29437C1.27141 36.7432 1.25266 36.7244 1.25266 36.7015V30.0209C1.25266 29.9979 1.27148 29.9792 1.29437 29.9792H7.97492C7.99789 29.9792 8.01664 29.9979 8.01664 30.0209V36.7015H8.01672Z" fill="#A2DCAA"/>
<path d="M32.6931 29.3947H12.6513C12.3054 29.3947 12.025 29.675 12.025 30.021C12.025 30.3669 12.3053 30.6473 12.6513 30.6473H32.693C33.039 30.6473 33.3194 30.367 33.3194 30.021C33.3194 29.675 33.039 29.3947 32.6931 29.3947Z" fill="#A2DCAA"/>
<path d="M24.6764 36.0752H12.6513C12.3054 36.0752 12.025 36.3555 12.025 36.7015C12.025 37.0475 12.3053 37.3279 12.6513 37.3279H24.6764C25.0223 37.3279 25.3027 37.0475 25.3027 36.7015C25.3027 36.3555 25.0223 36.0752 24.6764 36.0752Z" fill="#A2DCAA"/>
<path d="M39.3737 32.7349H12.6513C12.3054 32.7349 12.025 33.0152 12.025 33.3612C12.025 33.7071 12.3053 33.9875 12.6513 33.9875H39.3737C39.7196 33.9875 40 33.7072 40 33.3612C40 33.0153 39.7197 32.7349 39.3737 32.7349Z" fill="#A2DCAA"/>
<path d="M8.88266 3.38798C8.64851 3.29095 8.37937 3.34454 8.20008 3.52368L4.63469 7.08931L3.07344 5.52782C2.82875 5.28329 2.43227 5.28329 2.18766 5.52782C1.94305 5.77251 1.94305 6.16899 2.18766 6.4136L4.1918 8.41774C4.43648 8.66227 4.83297 8.66227 5.07758 8.41774L8.01672 5.47853V9.97907C8.01672 10.002 7.99797 10.0208 7.975 10.0208H1.29437C1.27141 10.0208 1.25266 10.002 1.25266 9.97907V3.29853C1.25266 3.27556 1.27148 3.25681 1.29437 3.25681H5.97078C6.31672 3.25681 6.59711 2.97649 6.59711 2.63048C6.59711 2.28454 6.3168 2.00415 5.97078 2.00415H1.29437C0.580625 2.00415 0 2.58478 0 3.29853V9.97907C0 10.6928 0.580625 11.2734 1.29437 11.2734H7.97492C8.68867 11.2734 9.2693 10.6928 9.2693 9.97907V3.96657C9.2693 3.71337 9.11672 3.48485 8.88266 3.38798Z" fill="#A2DCAA"/>
<path d="M8.88266 16.7492C8.64851 16.6521 8.37937 16.7057 8.20008 16.8849L4.63469 20.4505L3.07344 18.8892C2.82875 18.6446 2.43227 18.6446 2.18766 18.8892C1.94305 19.1338 1.94305 19.5303 2.18766 19.7749L4.1918 21.7792C4.43648 22.0237 4.83297 22.0237 5.07758 21.7792L8.01672 18.8399V23.3404C8.01672 23.3634 7.99797 23.3821 7.975 23.3821H1.29437C1.27141 23.3821 1.25266 23.3633 1.25266 23.3404V16.6599C1.25266 16.6369 1.27148 16.6181 1.29437 16.6181H5.97078C6.31672 16.6181 6.59711 16.3378 6.59711 15.9918C6.59711 15.6458 6.3168 15.3655 5.97078 15.3655H1.29437C0.580625 15.3653 0 15.9459 0 16.6597V23.3402C0 24.054 0.580625 24.6346 1.29437 24.6346H7.97492C8.68867 24.6346 9.2693 24.054 9.2693 23.3402V17.3277C9.2693 17.0745 9.11672 16.846 8.88266 16.7492Z" fill="#A2DCAA"/>
</svg>
